<svg width="177" height="24" viewBox="0 0 177 24" fill="none" xmlns="http://www.w3.org/2000/svg">
<!-- City buildings icon -->
<rect x="2" y="10" width="4" height="12" rx="0.5" fill="url(#paint0_linear_buildings)"/>
<rect x="7" y="6" width="5" height="16" rx="0.5" fill="url(#paint1_linear_buildings)"/>
<rect x="13" y="8" width="4" height="14" rx="0.5" fill="url(#paint2_linear_buildings)"/>
<rect x="18" y="4" width="6" height="18" rx="0.5" fill="url(#paint3_linear_buildings)"/>
<!-- Windows -->
<rect x="3" y="12" width="1" height="1" fill="#09090B" opacity="0.3"/>
<rect x="4.5" y="12" width="1" height="1" fill="#09090B" opacity="0.3"/>
<rect x="3" y="14" width="1" height="1" fill="#09090B" opacity="0.3"/>
<rect x="4.5" y="14" width="1" height="1" fill="#09090B" opacity="0.3"/>
<rect x="8.5" y="8" width="1.2" height="1.2" fill="#09090B" opacity="0.3"/>
<rect x="10.3" y="8" width="1.2" height="1.2" fill="#09090B" opacity="0.3"/>
<rect x="8.5" y="10.5" width="1.2" height="1.2" fill="#09090B" opacity="0.3"/>
<rect x="10.3" y="10.5" width="1.2" height="1.2" fill="#09090B" opacity="0.3"/>
<rect x="14" y="10" width="1" height="1" fill="#09090B" opacity="0.3"/>
<rect x="15.5" y="10" width="1" height="1" fill="#09090B" opacity="0.3"/>
<rect x="14" y="12" width="1" height="1" fill="#09090B" opacity="0.3"/>
<rect x="15.5" y="12" width="1" height="1" fill="#09090B" opacity="0.3"/>
<rect x="19.5" y="7" width="1.5" height="1.5" fill="#09090B" opacity="0.3"/>
<rect x="21.5" y="7" width="1.5" height="1.5" fill="#09090B" opacity="0.3"/>
<rect x="19.5" y="10" width="1.5" height="1.5" fill="#09090B" opacity="0.3"/>
<rect x="21.5" y="10" width="1.5" height="1.5" fill="#09090B" opacity="0.3"/>
<text x="32" y="16" font-family="Arial, sans-serif" font-size="14" font-weight="700" fill="#09090B">Urban Things</text>
<defs>
<linearGradient id="paint0_linear_buildings" x1="4" y1="10" x2="4" y2="22" gradientUnits="userSpaceOnUse">
<stop stop-color="#4ADE80"/>
<stop offset="1" stop-color="#16A34A"/>
</linearGradient>
<linearGradient id="paint1_linear_buildings" x1="9.5" y1="6" x2="9.5" y2="22" gradientUnits="userSpaceOnUse">
<stop stop-color="#18E299"/>
<stop offset="1" stop-color="#15803D"/>
</linearGradient>
<linearGradient id="paint2_linear_buildings" x1="15" y1="8" x2="15" y2="22" gradientUnits="userSpaceOnUse">
<stop stop-color="#4ADE80"/>
<stop offset="1" stop-color="#0D9373"/>
</linearGradient>
<linearGradient id="paint3_linear_buildings" x1="21" y1="4" x2="21" y2="22" gradientUnits="userSpaceOnUse">
<stop stop-color="#18E299"/>
<stop offset="1" stop-color="#16A34A"/>
</linearGradient>
</defs>
</svg>
